<?xml version="1.0" encoding="UTF-8"?>
<svg width="19px" height="20px" viewBox="0 0 19 20" version="1.1" xmlns="http://www.w3.org/2000/svg" xmlns:xlink="http://www.w3.org/1999/xlink">
    <g id="1440px_Program_Detail" stroke="none" stroke-width="1" fill="none" fill-rule="evenodd" transform="translate(-1220.000000, -7026.000000)">
        <path d="M1238.20853,7026.005 L1220.79206,7026.005 C1220.35447,7026.005 1220,7026.35947 1220,7026.79647 L1220,7044.21353 C1220,7044.65053 1220.35447,7045.005 1220.79206,7045.005 L1230.09375,7045.005 L1230.09375,7037.88 L1227.71875,7037.88 L1227.71875,7034.91125 L1230.09375,7034.91125 L1230.09375,7032.53625 C1230.09375,7030.08228 1231.64759,7028.87459 1233.83675,7028.87459 C1234.88531,7028.87459 1235.78662,7028.95297 1236.04906,7028.98741 L1236.04906,7031.55241 L1234.53084,7031.553 C1233.34037,7031.553 1233.0625,7032.11884 1233.0625,7032.94891 L1233.0625,7034.91125 L1236.03125,7034.91125 L1235.4375,7037.88 L1233.0625,7037.88 L1233.11,7045.005 L1238.20853,7045.005 C1238.64553,7045.005 1239,7044.65053 1239,7044.21353 L1239,7026.79647 C1239,7026.35947 1238.64553,7026.005 1238.20853,7026.005" id="Fill-3" fill="#FFFFFF"></path>
    </g>
</svg>
