<svg version="1.1" viewBox="0 0 48 48" xmlns="http://www.w3.org/2000/svg">
<path d="m4.8672 43.305l2.6953-9.8359c-1.6641-2.8789-2.5352-6.1445-2.5352-9.4883 0.003906-10.465 8.5195-18.98 18.988-18.98 5.0781 0.003906 9.8438 1.9805 13.43 5.5664 3.582 3.5859 5.5586 8.3555 5.5547 13.426-0.003906 10.469-8.5234 18.98-18.984 18.98-0.003906 0 0 0 0 0h-0.007812c-3.1797 0-6.3008-0.79688-9.0742-2.3086z" fill="#fff"/>
<path d="m4.8672 43.805c-0.13281 0-0.25781-0.054688-0.35547-0.14844-0.125-0.12891-0.17188-0.3125-0.125-0.48438l2.6367-9.6367c-1.6328-2.9062-2.4961-6.207-2.4961-9.5547 0.003906-10.742 8.7461-19.48 19.488-19.48 5.207 0.003906 10.102 2.0312 13.781 5.7148 3.6797 3.6797 5.707 8.5742 5.7031 13.777-0.003906 10.742-8.7461 19.48-19.484 19.48-3.1914 0-6.3438-0.78516-9.1445-2.2773l-9.875 2.5898c-0.042969 0.011719-0.085938 0.019532-0.12891 0.019532z" fill="#fff"/>
<path d="m24.016 5c5.0781 0.003906 9.8438 1.9805 13.43 5.5664 3.582 3.5859 5.5586 8.3555 5.5547 13.426-0.003906 10.469-8.5234 18.98-18.984 18.98h-0.007812c-3.1797 0-6.3008-0.79688-9.0742-2.3086l-10.066 2.6406 2.6953-9.8359c-1.6641-2.8789-2.5352-6.1445-2.5352-9.4883 0.003906-10.465 8.5195-18.98 18.988-18.98m0 37.973m0-38.973c-11.02 0-19.984 8.9609-19.988 19.98 0 3.3672 0.84766 6.6836 2.4609 9.6211l-2.5859 9.4375c-0.09375 0.34766 0.003906 0.71484 0.25391 0.96875 0.19141 0.19141 0.44922 0.29688 0.71094 0.29688 0.085937 0 0.17188-0.011719 0.25391-0.035157l9.6875-2.5391c2.8281 1.4688 6 2.2422 9.1992 2.2461 11.023 0 19.988-8.9648 19.992-19.98 0.003906-5.3398-2.0742-10.359-5.8477-14.137-3.7734-3.7773-8.7969-5.8555-14.137-5.8594z" fill="#CFD8DC"/>
<path d="m35.176 12.832c-2.9805-2.9805-6.9414-4.625-11.156-4.625-8.7031 0-15.785 7.0742-15.789 15.773 0 2.9805 0.83594 5.8828 2.4141 8.3945l0.375 0.59766-1.5938 5.8203 5.9727-1.5664 0.57812 0.34375c2.4219 1.4375 5.1992 2.1992 8.0312 2.1992h0.007812c8.6953 0 15.773-7.0781 15.777-15.777 0.003906-4.2148-1.6367-8.1797-4.6172-11.16z" fill="#40C351"/>
<path d="m19.27 16.047c-0.35547-0.79297-0.73047-0.80859-1.0703-0.82031-0.27734-0.011719-0.59375-0.011719-0.91016-0.011719-0.3125 0-0.82812 0.11719-1.2617 0.59375-0.4375 0.47266-1.6641 1.6211-1.6641 3.957 0 2.332 1.7031 4.5898 1.9375 4.9062 0.23828 0.3125 3.2852 5.2578 8.1055 7.1602 4.0078 1.5781 4.8242 1.2656 5.6914 1.1875 0.87109-0.082031 2.8086-1.1484 3.2031-2.2578 0.39453-1.1055 0.39453-2.0547 0.27734-2.2539-0.11719-0.19922-0.43359-0.31641-0.91016-0.55469-0.47266-0.23828-2.8047-1.3828-3.2422-1.543-0.43359-0.15625-0.75-0.23438-1.0664 0.23828-0.31641 0.47266-1.2266 1.543-1.5039 1.8594-0.27734 0.31641-0.55078 0.35547-1.0273 0.12109-0.47266-0.23828-2-0.73828-3.8125-2.3555-1.4102-1.2578-2.3633-2.8086-2.6406-3.2852-0.27734-0.47266-0.03125-0.73047 0.20703-0.96875 0.21484-0.21094 0.47656-0.55469 0.71484-0.83203 0.23438-0.27734 0.3125-0.47266 0.47266-0.78906 0.15625-0.31641 0.078125-0.59375-0.039062-0.83203-0.11719-0.23828-1.0391-2.582-1.4609-3.5195z" fill="#fff" fill-rule="evenodd"/>
</svg>
